<?xml version="1.0" encoding="utf-8"?>
<!-- Generator: Adobe Illustrator 26.0.1, SVG Export Plug-In . SVG Version: 6.00 Build 0)  -->
<svg version="1.1" id="Layer_1" xmlns="http://www.w3.org/2000/svg" xmlns:xlink="http://www.w3.org/1999/xlink" x="0px" y="0px"
	 viewBox="0 0 1080 1080" style="enable-background:new 0 0 1080 1080;" xml:space="preserve">
<style type="text/css">
	.st0{fill:#F16D28;}
	.st1{fill:#FFFFFF;}
	.st2{fill:#FB9D66;}
</style>
<g>
	<path class="st0" d="M276.4,358.7c11.1-9.4,25.8-14,40.2-13.7c10.5,0,20.9,2.6,30.8,5.9c11.2,4.7,20.8,12.6,29,21.5
		c2.7,5.5,5.8,10.9,7.7,16.7c3.5,10.1,4.5,20.9,4.8,31.6c-0.1,11.5-3.4,22.9-8.1,33.3c-0.8,2.1-2.3,3.8-3.9,5.3
		c-9-5.5-18.3-10.5-27.4-16L349,443c2.5-4,4.5-8.4,5.3-13.1c2.5-11.9,0.7-24.5-3.9-35.7c-4.2-9.7-13.3-16.4-22.9-20.2
		c-10.6-4.2-22.8-5-33.5-0.7c-9.7,3.8-17.5,11.7-21.2,21.4c-1.7,3.6-3.2,7.5-5.9,10.5c-1.9,2.3-6,2.8-7.9,0.2
		c-2.3-2.3-2-5.7-2.3-8.6C257,381.9,265,367.9,276.4,358.7 M312.2,474.9c10,5.8,20,11.6,30.1,17.4c-4,3.6-8.9,5.9-13.5,8.7
		c-10.9,6.5-22.2,12.8-31.6,21.5c-7.7,6.8-12.5,16.1-16.4,25.4c-4.8,11.6-6.2,24.9-2.3,37c5.3,17.1,17.3,31,28.8,44.3
		c8.3,9.7,17.6,18.6,24.6,29.3c9.4,13.9,15.4,30.4,15.2,47.3c0.2,10.6-2.3,21-6.5,30.6c1.3,0.1,2.7,0.2,4,0.3l1.1,0.1
		c-12.6,1.7-25.2-2.4-36.4-8.1c-4.6-2.4-9.1-5-13-8.3c6.9-6.8,9.8-17.1,8.1-26.7c-2.2-12.4-9.3-23.4-17.6-32.6
		c-15.7-18-31.6-36.4-41.3-58.4c-5.2-11.6-8.4-24.2-8.3-36.9c0.3-16.9,6.9-33.1,16.6-46.7c6.1-9.1,14.7-16.1,23.5-22.5
		C288.6,488.7,300.6,482.1,312.2,474.9 M163.4,570.8c15-4.3,31.8-4,45.9,3.2c7.4,3.8,14.1,9.2,19.1,15.9c2.3,4.2,4.3,9,4,13.9
		c-0.1,2.7-2.5,5.2-5.2,5.2c-3.5-0.6-5.7-3.5-8.1-5.8c-2.7-3-6.3-4.9-9.5-7.2c-0.3,6.9-0.1,13.8-0.1,20.7l-0.6-0.3
		c-0.2-6.9,0-13.8-0.1-20.6c-10.5-4.8-22.7-7.5-34.1-4.2c-17.6,4.6-31.8,20.1-34.8,38.2c-2.2,11.4,0.7,23.3,6.8,33.1
		c11.3,17.5,35.3,25.4,54.8,17.8c4.7-1.7,9-4.5,12.6-8c9.4,4.8,18.4,10.4,27.5,15.7c-11.4,14.2-29,22.7-47.1,24.1
		c-11,1.6-22.3,0.2-33.1-2.4c-15-4.4-28.6-13.8-37.4-26.8c-11-16-15.2-36.3-12.1-55.4c2.8-18.6,13.1-36.2,28.8-46.8
		C147.6,576.1,155.5,573.2,163.4,570.8 M879.9,664c7.8-9.3,24.3-9.6,31.8,0.2c-1.9,1.7-3.7,3.4-5.5,5.2c-4.1-4.8-11.4-6.3-16.8-2.9
		c-7.6,4.4-7.6,17.1,0,21.5c5.4,3.4,12.8,1.9,16.9-2.9c1.8,1.8,3.6,3.5,5.5,5.3c-7.6,9.7-24.1,9.5-31.9,0.1
		C873.7,683.1,873.7,671.3,879.9,664 M922,697c0-13.2-0.1-26.4,0-39.5c2.8,0,5.6,0,8.4,0c0,10.7,0,21.4,0,32.1c6.5,0,12.9,0,19.4,0
		c0,2.5,0,5,0,7.4C940.6,697,931.3,697,922,697 M959.8,657.5c2.8,0,5.6,0,8.4,0c0,13.2,0,26.4,0,39.5c-2.8,0-5.6,0-8.4,0
		C959.8,683.8,959.8,670.7,959.8,657.5L959.8,657.5z"/>
	<path class="st1" d="M294,373.2c10.7-4.3,22.9-3.5,33.5,0.7c9.6,3.8,18.7,10.5,22.9,20.2c4.6,11.2,6.4,23.8,3.9,35.7
		c-0.2-1.8-0.4-3.7-0.5-5.5l-0.5-0.1c-0.1-4.8-1.6-9.4-3.1-13.9c-7.2-0.4-13-7.5-12.2-14.6c0.1-1.4,0.8-2.6,0.8-4
		c-2.1-2.4-4.7-4.4-7.1-6.5c-1.2,1.1-2.6,1.9-4.1,2.4c-3.3,1-6.7,0.1-9.9-1.1c-3.3-1.7-5.5-4.8-6.8-8.2c-1.9,0-3.8,0-5.7,0l-0.1,0.6
		c-1.6,0.1-3.1,0.2-4.7,0.3c-1.7,3.8-4.6,7.1-8.5,8.7c-1.1,0.3-2.2,0.6-3.3,1c-2.4-0.2-4.7-0.8-7-1c-3.3,1.6-6,4.3-8.8,6.6
		C276.5,384.9,284.3,377,294,373.2 M395.2,424.2c-3.4-4.3-2.9-11,1.1-14.8c1.6-0.4,3.1,0.2,4.5,0.9c2.9,4.5,3.3,12.1-1.9,15.1
		C397.7,425.2,396.1,425.4,395.2,424.2 M235.6,413.4c0.3-0.1,1-0.3,1.4-0.4c0.2,1.6,0.3,3.1,0.8,4.7c2.1,12.4,4.7,24.7,6.9,37.1
		c0.7,2.6,0.8,5.4,1,8c-10.3-9.4-20.4-19-30.8-28.2C221.6,427.4,228.8,420.6,235.6,413.4 M293.5,414.5c1.3-0.8,2.6-1.5,4.2-1.3
		c0.9,0.6,1.8,1.3,2.7,1.9c4.9,2.7,9.7,5.6,14.6,8.4c5.3,3,10.5,6.1,15.8,9.1c6.3,3.7,12.6,7.4,18.9,10.9c9,5.5,18.3,10.5,27.4,16
		c5.6,3,11,6.3,16.5,9.5c0.5,0.3,1.4,0.8,1.9,1.1c4.1,2.3,8.1,4.7,12.1,7c5.1,2.8,10,5.8,15,8.7c2.3,1.3,4.5,2.5,6.8,3.8
		c0,7.4,0.1,14.8,0,22.2c0.1,1.3-1,2.2-1.7,3.1c-12.2,14.8-24.4,29.5-36.6,44.3c-2.6,2.9-4.7,6.2-7.6,8.7c-0.2-17,0.1-34.1-0.1-51.1
		c0.1-1.4-1.7-1.6-2.5-2.4c-4.6-2.3-8.9-5.1-13.4-7.6c-8.4-4.8-16.8-9.7-25.2-14.5c-10-5.8-20-11.6-30.1-17.4
		c-4.9-2.8-9.8-5.8-14.7-8.5c-1.2-0.9-2.5,0.4-3.6,0.9c-10.7,6.2-21.5,12.4-32.2,18.6c-4.5,2.5-8.8,5.2-13.3,7.6
		c-0.3,0.3-0.9,0.9-1.2,1.3c0-0.5,0-1.6,0.1-2.2c4.4-8.5,8.5-17.1,12.3-25.9c-1-7.4-2.8-14.8-3.7-22.2c-0.7-2.5-0.8-5.2-1-7.8
		c2.3-1.3,4.6-2.6,6.9-4C272.3,426.8,282.9,420.7,293.5,414.5 M394.7,443.8c0.9-1.5,2.8-1.7,4.3-1.9c2.1,0.6,3.2,2.8,3.8,4.8
		c1.2,4.6-0.1,9.6-3,13.4c-1.4,0.5-2.9,1-4.3,1.5C390.4,457.2,390.8,448.9,394.7,443.8 M216.6,458.9c1-0.6,2-1.2,3-1.8
		c6.1,5.5,12.4,10.9,18.5,16.4c-0.1,0.8-0.3,2.5-0.4,3.3c-1,3.2-1.5,6.5-2.3,9.7c-1,5.1-2.3,10.1-3.5,15.1c-0.2,1.4-1.4,2.2-2.5,2.9
		c-6.9,3.8-13.6,7.6-20.3,11.8c0.1,10,0.1,19.9,0,29.9c-2.4-2-4.9-3.9-7.4-5.8c-8.5-6.5-17-13-25.5-19.5c-4.2-3.7-9.6-6.3-13.1-10.9
		c0.3-6.6,0-13.2,0.2-19.8c0.7-1.9,2.9-2.4,4.5-3.4c0.9-0.5,1.7-1,2.6-1.6c10.4-5.9,20.7-12,31.1-17.9
		C206.6,464.7,211.6,461.7,216.6,458.9 M402.7,562.3c18.6-22.6,37.5-44.9,56-67.5c1.5,2.4,3.1,4.7,4.7,7.1
		c5.9,8.8,11.6,17.6,17.6,26.3c0.7,1,1.2,2.2,1.5,3.4c-1.3,0.3-2.5,0.7-3.8,1c-5.7,2.4-11.4,4.6-17.2,6.8c-8.9,3.4-17.8,7-26.7,10.4
		c-5.8,2.1-11.5,4.5-17.3,6.7c-1.7,0.6-3.3,1.3-5,1.9c-1.3,0.5-2.5,1-3.8,1.5C406.7,560.7,404.7,561.5,402.7,562.3 M337,501.4
		c2.5-0.9,5.5-1.5,7.8,0c2.1,1.2,1.6,4.1,1.2,6.1c-1.6,4.2-5.6,7.2-9.9,8.5c-2.3,0.5-5.2,0.9-7.1-0.9c-1.6-1.2-1.2-3.5-0.9-5.3
		C329.6,505.9,333.1,502.9,337,501.4 M133.1,503.2c11.3,9.1,22.8,17.8,34.2,26.8c6.5,5.1,12.9,10.1,19.4,15.2
		c-7.1-1-14.2-2.4-21.3-3.4c-2-0.5-4-0.7-6-0.9c-2.5-0.7-5.2-0.6-7.7-1.3c-2-0.3-4-0.5-6-0.9c-4.6-0.6-9.2-1.4-13.8-2.2
		C132.2,525.4,132.8,514.3,133.1,503.2 M340.8,526.8c-1.8-8.9,9.6-17,17.5-12.9c2.4,3.7,0,8-2.9,10.6
		C351.6,528,345.2,530.5,340.8,526.8 M307.1,525.3c2.2-0.5,4.9-0.3,6.1,1.8c1.5,2.8,0.2,6.2-1.5,8.7c-2.7,3.8-7.2,7.2-12.1,6.4
		c-2.4-0.5-3.7-3.2-3.2-5.5C297.3,531.3,301.8,526.8,307.1,525.3 M515.5,533.5c9.4,0,18.9,0,28.4,0c0,15.8,0,31.7,0,47.5
		c13.9-15.5,27.8-31.1,41.7-46.6c10.7,0,21.3,0,32,0c-13.3,15.4-26.7,30.6-39.9,46c4.6,6.7,9,13.5,13.6,20.3
		c-10.2,1.6-20.4,3.1-30.6,4.7c-0.9-1.2-1.7-2.4-2.5-3.6c-2,1.8-3.5,4.8-6.5,5c-11.8,1.8-23.5,4-35.3,5.6c11.5-0.3,23-1.8,34.5-2.8
		c-2.7,2.8-5.3,5.7-8,8.5c0,8.9,0,17.8,0,26.7c-9.1,0-18.2,0-27.3,0C515.5,607.8,515.5,570.6,515.5,533.5 M633.7,534.1
		c14.3,0,28.6,0,42.8,0c7.3,0.1,14.8-0.4,22,1.2c10.2,2,20.6,7.1,26.2,16.2c5.1,8.1,5.6,18.1,4.6,27.4c-0.3,1,0.2,3.1-1.6,2.8
		c-11.3,1.6-22.8,2.6-34.1,4.8c4.9-1.7,8.5-6.5,8.9-11.6c0.2-4.4,0-9.2-2.9-12.7c-3.8-4.7-10.2-6.5-16-6.6c-7.7,0-15.3,0-23,0
		c0,11.5,0,23,0,34.4c2,0.1,4,0.2,6,0.3c-11.1,0.6-22,2.8-33,4.2C633.8,574.3,633.7,554.2,633.7,534.1 M748.7,533.5
		c9.5,0,18.9,0,28.4,0c0,14.1,0,28.1,0,42.2c-9.5,1.1-18.9,2.2-28.4,3.4C748.7,563.9,748.7,548.7,748.7,533.5 M866.7,533.8
		c8.3,0,16.5,0,24.8,0c7.1,9.2,14.2,18.5,21.4,27.6c-15.4,1.4-30.8,2.9-46.2,4.5C866.7,555.2,866.7,544.5,866.7,533.8 M942.3,534.1
		c8.8,0,17.6,0,26.4,0c0.1,7.6,0,15.2,0,22.8c-8.8,0.4-17.6,1.3-26.4,2C942.3,550.6,942.3,542.3,942.3,534.1 M313.8,543
		c2.6-5.1,9-10.1,14.9-7.3c1.9,1.4,1.6,4.2,1.2,6.2c-1.9,5.7-7.4,10.2-13.5,10.3C312.3,551.1,311.9,546.2,313.8,543 M782.1,575.2
		c12.5-13.4,24.4-27.3,36.7-40.8c10.7,0,21.3,0,32,0c-10.5,12.1-20.9,24.3-31.6,36.2C807,572.7,794.4,573.3,782.1,575.2
		 M163.4,554.1c5.1,0.7,10.2,1.8,15.3,2.5c2,0.5,4,0.7,6,1c2.2,0.6,4.5,0.7,6.7,1.3c2,0.3,4,0.5,6,1c4,0.5,7.9,1.4,11.8,1.9
		c0.1,4.1,0.1,8.2,0,12.2c-14.1-7.2-30.9-7.5-45.9-3.2C163.4,565.2,163.4,559.7,163.4,554.1 M942.3,564.2c8.9-1.9,17.9-3.8,26.5-7.1
		c0,29.5,0,58.9,0,88.4c-8.5,0-17,0.1-25.4,0c-16.4-21.9-32.9-43.6-49.3-65.5c-0.2,21.5,0,43-0.1,64.5c-9.1,0-18.2,0-27.2,0
		c0-22.7,0-45.5,0-68.2c17.2-2.3,34.5-4.8,51.6-7.6c8,10.4,16,20.7,24,31.1C942.3,587.9,942.3,576.1,942.3,564.2 M445.7,566
		c4.6-2,9.2-3.8,13.7-5.9c-1.3,5-3.1,9.9-4.7,14.8c-0.3,1-0.6,2-0.9,3c-0.3,1-0.6,2-0.9,3c-1.1,3.4-2.2,6.8-3.3,10.2
		c-12.3-1.2-24.6-2.2-36.9-3.5l-0.4-0.2c-3.8-1.6-8.2-0.1-12.2-1.2l-1-0.8c1.4-0.7,2.8-1.3,4.3-1.9c4.5-1.8,8.8-3.7,13.3-5.5
		c1.6-0.7,3.3-1.4,5-2C429.7,572.7,437.6,569.1,445.7,566 M288.9,562.2c3.8-1.9,7.1,2,8,5.4c1.1,4.4,1,9.7-2,13.3
		c-1.5,2.1-5,2.4-6.8,0.5c-3.5-3.4-3.7-8.7-2.9-13.2C285.7,565.9,286.8,563.4,288.9,562.2 M307.3,565.6c1-2.4,3.6-3.4,6.1-3.2
		c5.6,3.3,5.6,10.8,4.2,16.3c-0.5,1-1,2-1.6,2.9c-1.8,1.7-4.9,2.6-6.8,0.6C304.9,578,304.8,570.8,307.3,565.6 M748.7,590.2
		c21.3-2.3,42.7-4.7,64-7.2c13.9,20.8,27.7,41.6,41.5,62.3c-10.9-0.1-21.8,0-32.6-0.1c-10-14.5-20.1-28.9-30.2-43.4
		c-5.1,5.5-10.2,11-15.3,16.4c-0.1,8.9,0,17.8,0,26.7c-9.1,0-18.2,0-27.3,0C748.7,626.7,748.7,608.4,748.7,590.2 M174.7,591.5
		c11.4-3.3,23.6-0.7,34.1,4.2c0.1,6.9-0.1,13.8,0.1,20.6l0.6,0.3c2.7,1.4,5.2,3,7.9,4.4c5.6,2.8,10.9,6.4,16.5,9.4
		c4.9,2.8,9.7,5.7,14.6,8.5c4.5,2.5,8.8,5.1,13.2,7.7c0.9,0.5,1.7,1,2.6,1.5c5.5,3,10.9,6.4,16.4,9.5c2,1.2,4.1,2.3,6.1,3.5
		c8.3,9.2,15.5,20.2,17.6,32.6c1.7,9.5-1.1,19.8-8.1,26.7c-4.6-3.3-9.8-5.9-14.7-8.8c-4.5-2.5-8.8-5.1-13.2-7.7
		c-1.1-0.6-2.1-1.2-3.2-1.8c-4.7-2.6-9.3-5.5-14-8.1c-0.8-0.5-1.7-1-2.5-1.5c-2.4-1.3-4.8-2.7-7.2-4.2c-9.1-5.3-18.1-10.9-27.5-15.7
		c-3.6,3.5-7.9,6.3-12.6,8c-19.4,7.5-43.5-0.3-54.8-17.8c-6.1-9.7-9-21.7-6.8-33.1C142.8,611.7,157,596.2,174.7,591.5 M159.7,605.6
		c3.6,7.8-1.7,18.5-10.6,18.9c-1.3,3.1-1,6.6-1.2,9.9c6.2,1.4,8.7,8.5,6.8,14.2c-0.7,1.3-1.5,2.6-1.9,4.1c0.7,1.5,1.7,2.9,2.5,4.3
		c1.7,4.3,6.2,0.5,9.4,1.9c4.7,0.7,8.4,4.3,10.4,8.5c0.1,0.7,0.2,2.2,0.3,3c3,0.7,6.2,1.1,9.3,0.9c0.1-3.8,3.4-6.9,7.1-7.4
		c3.7-1,7.3,1,10.6,2.5c-0.7-0.6-1.4-1.2-2.1-1.8c-3.5-2-6.9-4.1-10.3-6.1c-0.5-0.3-1.4-0.8-1.8-1c-0.9-0.5-1.7-1-2.6-1.5
		c-4.8-2.8-9.7-5.7-14.6-8.4c-2.5-1.4-5.1-2.9-7.6-4.4c0.1-13.5,0.2-26.9,0-40.4C162.1,603.7,160.9,604.7,159.7,605.6 M322.4,592.5
		c2.3-2.8,6.6-2.4,9.4-0.6c4.7,2.5,7.4,7.7,8.1,12.9c-0.2,0.6-0.5,1.8-0.7,2.5c-1.8,4.7-7.9,3.9-11.2,1.3
		C323.2,605,319.5,598.3,322.4,592.5 M633.7,601.9c30.7-2.9,61.3-6.1,92-9.3c-3.2,6.9-8.3,13.1-15.1,16.6
		c7.4,11.8,14.6,23.6,22,35.4c-10.4,0-20.8,0-31.2,0c-5.7-10.1-11.4-20.2-17.1-30.3c-7.8,0-15.5,0-23.3,0c0,10.1,0,20.2,0,30.2
		c-9.1,0-18.2,0-27.3,0C633.7,630.4,633.7,616.2,633.7,601.9 M383.3,598.8c11.5,0.8,23,2.3,34.5,2.7c3.8,1,7.7,0.8,11.6,0.9
		c0.9,13.5,0.1,27.1,0.4,40.7c-3,1.9-6.1,3.7-9.3,5.4c-4.9,2.8-9.7,5.7-14.6,8.5c-4.4,2.5-8.8,5.1-13.2,7.7c2.8,5.1,4.6,11.3,2.4,17
		c-0.8,2.4-2.5,4.4-4.9,5.2c-3.4,0.5-6.9-1-9.1-3.6c-4.6-5.3-6.5-13.3-3.7-19.9c1.1-2.7,3.9-3.9,6.4-4.9c-3.2-7-7.5-13.5-12.1-19.6
		c-3,1.8-6.6,3.2-10,1.5c-7.7-3.1-14.1-13.5-8.8-21.2l0.4-0.7c6.1-3,12.6,1,16.3,5.8c1.7-0.9,3.3-1.9,5-2.8c0.5-0.3,1.4-0.8,1.8-1.1
		c2.3-1.3,4.6-2.6,6.9-4C383.2,610.7,383.2,604.7,383.3,598.8 M302.8,599.9c1.7-1.1,3.9-0.9,5.7-0.2c5.5,2,9.4,7.4,10.3,13.1
		c0.6,3.1-1.7,7.1-5.2,6.7c-5.5-0.1-9.9-4.8-12-9.5C299.9,606.8,299.4,602.1,302.8,599.9 M562.8,608.6c10.6-0.9,21.2-1.9,31.8-2.9
		c8.7,13.2,17.6,26.3,26.3,39.6c-10.8,0-21.7,0-32.5,0C579.9,633,571.3,620.8,562.8,608.6 M332,629.3c8.9-1.9,16.7,7.1,17.2,15.4
		c0.5,4.3-3.2,8.6-7.7,8c-6.9-0.8-12.3-7-13.9-13.5C326.6,635.5,328.1,630.6,332,629.3 M356,666.2c2.4-0.5,5.1-0.6,7.2,1
		c4.9,3.5,7.5,9.6,7.7,15.5c0,3.9-1.3,8.2-4.8,10.4c-2.8,0.8-6.2,0.6-8.5-1.4c-5.3-4.4-7.5-11.9-6.4-18.6
		C351.9,670.4,353.2,667.3,356,666.2L356,666.2z"/>
	<path class="st2" d="M376.5,372.4c9.6,10.4,16.1,23.5,19.9,37c-4,3.7-4.5,10.5-1.1,14.8c0.9,1.2,2.5,1,3.8,1.3
		c0.4,5.5,0.5,11,0.1,16.4c-1.6,0.2-3.4,0.4-4.3,1.9c-3.9,5-4.3,13.4,0.8,17.7c-0.5,2.5-1.2,4.8-2,7.2c-5.5-3.1-11-6.4-16.5-9.5
		c1.6-1.5,3-3.2,3.9-5.3c4.7-10.5,7.9-21.8,8.1-33.3c-0.3-10.7-1.3-21.5-4.8-31.6C382.3,383.2,379.1,377.9,376.5,372.4 M342.3,492.3
		c8.4,4.8,16.8,9.7,25.2,14.5c-3,2.4-6,4.9-9.2,7.1c-7.8-4.1-19.2,4-17.5,12.9c-3.7,3.1-7.6,6-11.1,9.3l-0.9-0.4
		c-5.9-2.8-12.3,2.2-14.9,7.3c-1.9,3.2-1.5,8.1,2.6,9.2c-1.3,3.3-2.5,6.7-3,10.2c-2.5-0.2-5.1,0.7-6.1,3.2
		c-2.5,5.2-2.4,12.4,1.8,16.7c1.9,2,5,1.1,6.8-0.6l0.7-0.5c1.3,3.9,3.6,7.3,6.1,10.5l-0.3,0.9c-2.9,5.8,0.8,12.5,5.6,16
		c3.2,2.6,9.3,3.4,11.2-1.3c4.7,3.9,9.4,7.9,13.8,12c-5.3,7.7,1.1,18.1,8.8,21.2c3.4,1.7,7,0.3,10-1.5c4.7,6.1,9,12.5,12.1,19.6
		c-2.5,1-5.3,2.2-6.4,4.9c-2.8,6.6-0.9,14.6,3.7,19.9c2.2,2.6,5.6,4.1,9.1,3.6c-0.1,3.3-0.1,6.6-0.4,10
		c-1.2,11.3-6.5,22.4-15.8,29.3c-8.5,6.2-18.9,9.9-29.4,10.5c-1.3-0.1-2.7-0.2-4-0.3c4.2-9.6,6.7-20.1,6.5-30.6
		c0.2-16.9-5.9-33.4-15.2-47.3c-7.1-10.7-16.3-19.6-24.6-29.3c-11.5-13.3-23.4-27.2-28.8-44.3c-3.9-12.1-2.5-25.4,2.3-37
		c3.9-9.3,8.8-18.6,16.4-25.4c9.4-8.7,20.6-15,31.6-21.5C333.4,498.2,338.3,495.9,342.3,492.3 M337,501.4c-3.9,1.5-7.4,4.5-8.8,8.5
		c-0.3,1.7-0.7,4,0.9,5.3c1.9,1.8,4.8,1.4,7.1,0.9c4.2-1.3,8.3-4.2,9.9-8.5c0.4-2,0.9-4.9-1.2-6.1
		C342.5,499.9,339.5,500.5,337,501.4 M307.1,525.3c-5.3,1.5-9.8,6-10.7,11.5c-0.5,2.3,0.8,4.9,3.2,5.5c4.9,0.8,9.4-2.6,12.1-6.4
		c1.7-2.5,3-5.9,1.5-8.7C312,525,309.2,524.7,307.1,525.3 M288.9,562.2c-2.1,1.2-3.2,3.6-3.8,5.9c-0.8,4.5-0.6,9.8,2.9,13.2
		c1.8,1.9,5.3,1.7,6.8-0.5c3.1-3.6,3.1-8.9,2-13.3C296,564.2,292.7,560.3,288.9,562.2 M302.8,599.9c-3.4,2.2-2.9,6.9-1.2,10.1
		c2.2,4.7,6.5,9.4,12,9.5c3.5,0.4,5.8-3.6,5.2-6.7c-0.9-5.7-4.8-11.1-10.3-13.1C306.7,599,304.5,598.8,302.8,599.9 M332,629.3
		c-3.9,1.3-5.4,6.2-4.3,9.8c1.6,6.5,7,12.7,13.9,13.5c4.5,0.7,8.2-3.6,7.7-8C348.7,636.4,340.9,627.4,332,629.3 M356,666.2
		c-2.8,1.1-4.1,4.2-4.8,6.9c-1.1,6.7,1.1,14.1,6.4,18.6c2.3,2.1,5.7,2.2,8.5,1.4c3.5-2.1,4.8-6.5,4.8-10.4c-0.3-5.9-2.8-12-7.7-15.5
		C361.2,665.7,358.4,665.8,356,666.2 M396.7,586.3c0.6-0.4,1.3-0.8,2-1.2c0.1,0.1,0.3,0.3,0.5,0.4l1,0.8c4,1.1,8.4-0.3,12.2,1.2
		C407.1,588.1,401.9,587.1,396.7,586.3L396.7,586.3z"/>
</g>
</svg>
