<?xml version="1.0" encoding="utf-8"?>
<!-- Generator: Adobe Illustrator 26.0.1, SVG Export Plug-In . SVG Version: 6.00 Build 0)  -->
<svg version="1.1" id="Layer_1" xmlns="http://www.w3.org/2000/svg" xmlns:xlink="http://www.w3.org/1999/xlink" x="0px" y="0px"
	 viewBox="0 0 1916 712" style="enable-background:new 0 0 1916 712;" xml:space="preserve">
<style type="text/css">
	.st0{fill:#FF7A00;}
	.st1{fill:#F5F4EE;}
</style>
<g id="_x23_ff7a00ff">
	<path class="st0" d="M380.3,106.2c49.7-23.6,109.7-24,159.7-1.1c31.6,14.2,59.2,37.3,78.9,65.9c21.7,31.4,33.8,69.6,33.5,107.9
		c-2.5,9.6-7.4,18.5-12.3,27.1c-7.8,13-18.1,24.5-29.9,33.9c-0.4-13-0.1-25.9-0.2-38.9c-0.2-14.1,0.7-28.2-1.4-42.2
		c-4.7-35-22.6-67.9-49.2-91.1c-26.8-23.7-62.4-37.1-98.2-36.9c-30.5,0-61,9.7-85.9,27.5c-24.8,17.6-44,43-54.1,71.7
		c-5.6,16-8.5,32.9-8.4,49.8c-14.2,0.1-28.4,0-42.5,0c-0.2-36.4,10.4-72.8,30.1-103.4C319.6,146.1,347.7,121.4,380.3,106.2z"/>
	<path class="st0" d="M767.6,217.4c9.5-0.3,19.1,0,28.6-0.2c0.2,9.6,0,19.1,0.1,28.7c-9.5,0-19.1,0-28.6,0
		C767.6,236.4,767.8,226.9,767.6,217.4z"/>
	<path class="st0" d="M457,272c1.6-3.2,7-2.5,7.8,1c0.4,3.1,0.1,6.3,0.2,9.4c-2.8-0.1-5.7-0.1-8.5,0C456.6,279,455.9,275.3,457,272z
		"/>
	<path class="st0" d="M451.5,285.6c10.4-2.2,21.7-0.5,30.9,5.1c12.3,7.3,20.4,21,20.6,35.4c0.4,12.1-4.7,24.2-13.7,32.3
		c-9,8.5-22,12.6-34.2,10.9c-12-1.4-23.2-8.5-29.9-18.5c-7.2-10.7-9.1-24.7-5-36.9C424.7,299.8,437.1,288.6,451.5,285.6
		 M456.4,293.4c-15,1.7-27.6,14.3-29.6,29.2c-0.2,2.9-0.2,5.7-0.1,8.6c1.2,7.8,4.7,15.2,10.5,20.6c5.2,5,12,8,19.1,9.1
		c2.9,0.1,5.7,0.1,8.6,0c6.2-1.1,12.4-3.5,17.2-7.7c6.7-5.5,11-13.6,12.2-22.2c0.2-2.9,0.1-5.7-0.1-8.6c-2.1-14.8-14.5-27.3-29.3-29
		C462.1,292.9,459.2,293.2,456.4,293.4z"/>
	<path class="st0" d="M270,311.9c20.9,29.5,41.3,59.4,62,89.1c3,4.5,6.4,8.8,9.1,13.5c-8.2-0.1-16.5,0.1-24.7,0.1
		c-1.3,10.3,1.4,20.4,4.5,30.1c-14-0.8-29.5-2.5-40.1-12.7c-9.9-10.1-10.7-25.2-11.2-38.5C269.4,366.4,269.6,339.1,270,311.9z"/>
	<path class="st0" d="M505.3,322.5c3.3,0.2,6.6-0.3,9.8,0.4c3.5,1.2,3.5,6.7,0,7.9c-3.2,0.6-6.6,0.2-9.9,0.2
		C505.3,328.1,505.3,325.3,505.3,322.5z"/>
	<path class="st0" d="M406.1,330.8c-3.2-1.3-3.2-6.3-0.2-7.7c3.3-0.8,6.7-0.4,10-0.4c-0.1,2.8-0.1,5.6-0.1,8.4
		C412.6,331,409.3,331.4,406.1,330.8z"/>
	<path class="st0" d="M456.5,371.9c2.8,0.1,5.6,0.1,8.5-0.1c-0.1,3.1,0.2,6.2-0.2,9.3c-0.9,3.4-6.1,4-7.7,0.9
		C455.9,378.8,456.6,375.2,456.5,371.9z"/>
	<path class="st0" d="M157.4,376.5c9.5,0,19,0.1,28.5-0.1c0.3,9.5,0.1,19.1,0.1,28.6c-9.6-0.1-19.1,0.2-28.7-0.1
		C157.5,395.5,157.4,386,157.4,376.5z"/>
	<path class="st0" d="M609,413.6c15.4-11.6,29.9-24.4,43.4-38.1c0.4,20.3,0.3,40.8-4.3,60.6c-7.6,35.3-25.7,68.3-51.2,93.9
		c-24.8,25-56.7,43-91,51.2c-39.2,9.4-81.4,6.1-118.6-9.6c-25.2-10.6-48.1-26.6-66.5-46.7c21.4,1.5,42.9,0.6,64.2-2
		c31.5,18.9,70.1,25.5,106.1,18c34.8-7,66.7-27.1,88.2-55.3C595.5,464.7,605.4,439.5,609,413.6z"/>
	<path class="st0" d="M300,500.2c20.4,5,41.5,6.8,62.5,6.2c5.6,4.8,11.5,9.2,17.5,13.4c-20.6,2.4-41.5,3-62.2,2
		c-4.9-6-9.9-12-14.1-18.4C302.9,501.9,301.5,501,300,500.2z"/>
</g>
<g id="_x23_f5f4eeff">
	<path class="st1" d="M647.2,169.3c15.7,5.7,31,13.6,42.9,25.6c13.3,13,21.8,30.7,23.5,49.2c1.9,18.5-2.1,37.2-8.9,54.4
		c-11.6,29.1-30.9,54.4-52.3,77c-13.6,13.7-28,26.5-43.4,38.1c-33.3,25.3-70.1,45.8-108.7,61.6c-43.8,17.8-90.3,29.5-137.7,31.2
		c-21,0.7-42.1-1.2-62.5-6.2c-19.6-5.2-38.7-13.6-53.5-27.7c-11.7-11.1-20.2-25.7-23.4-41.5c-2.5-11.5-2.3-23.4-0.6-35
		c1.8,19.1,11.8,37.1,26.4,49.4c14.5,12.4,32.6,19.8,51,24.1c33.3,7.5,67.9,5.7,101.3,0c45.4-8.2,89.1-24.5,129.6-46.5
		c33.2-18.1,64.4-40.1,91.4-66.8c14.5-14.4,27.8-30.1,38.8-47.4c10.4-16.4,18.7-34.5,22.4-53.6c2.9-15.3,2.5-31.5-3-46.2
		C674.4,192.4,661.9,178.8,647.2,169.3z"/>
	<path class="st1" d="M707.4,173.4c0.3,0.1,1,0.2,1.3,0.3c4.2,4.4,8.7,8.3,12.5,13.1c11.9,14.4,18.9,32.7,19.9,51.3
		c1.3,21.7-4.2,43.2-12.9,63c-3.5,8-7.8,15.7-11.8,23.5c-0.3-2.2,1-4,2.4-5.6c8.8-18.9,15.6-39,17.6-59.9c2.2-21.9-1.5-44.7-12.4-64
		C719.4,187.2,714.3,179.4,707.4,173.4z"/>
	<path class="st1" d="M751.1,189.8c5.4,0,10.8,0,16.2,0c0,5.4,0,10.8,0,16.2c-5.4,0-10.8,0-16.2,0
		C751.1,200.6,751.1,195.1,751.1,189.8z"/>
	<path class="st1" d="M870.1,218.4c14.9,0.1,29.8,0.1,44.8,0c0.2,34.6,0,69.2,0.1,103.8c38.7,0,77.4,0,116.1,0
		c0-34.5,0-69.1,0-103.7c15.1-0.1,30.1,0,45.2,0c0,83.7,0,167.4,0,251.1c-15.1,0.2-30.1,0-45.2,0.1c-0.1-36.4,0.1-72.9-0.1-109.3
		c-38.7,0-77.3,0.1-116,0c-0.3,36.5,0,72.9-0.2,109.4c-15-0.1-29.9,0-44.9,0c-0.2-47.2,0-94.5-0.1-141.7
		C870,291.5,869.6,254.9,870.1,218.4z"/>
	<path class="st1" d="M1564.1,218.5c14.6-0.1,29.2-0.1,43.7,0c-0.1,46.7,0,93.4,0,140.1c1.4,0.1,2.6-0.3,3.5-1.3
		c22.5-24.6,44.8-49.5,67.4-74.1c17.1,0.2,34.3,0,51.4,0.1c-24,26.7-48.2,53.2-72.3,79.8c-1,1,0.4,2.1,1,3
		c23.9,32.4,47.6,64.9,71.4,97.4c1.5,1.9,2.9,3.9,4.1,6c-17.5,0-35,0.1-52.5,0c-19.2-26.5-38.5-53-57.8-79.5
		c-5.4,5.7-10.7,11.4-16.1,17c-0.1,20.8,0,41.7-0.1,62.5c-14.5,0-29.1,0-43.6,0C1564.1,386,1564.2,302.2,1564.1,218.5z"/>
	<path class="st1" d="M353.9,251.5c70.1-0.4,140.3-0.4,210.4-0.6c-20.5,19.7-41.6,38.9-62.6,58.1c1.4,3.7,2.5,7.5,3.2,11.4
		c2.5-0.2,5.5,0.8,7.6-0.9c20.6-18.5,41-37.1,61.7-55.5c0.2,41.7,0.2,83.4,0.5,125c-20.4-18.5-40.6-37.3-60.8-56c-2.9,0-5.9,0-8.8,0
		c-0.6,3.9-1.7,7.7-3,11.5c20.8,19.2,41.7,38.5,62.2,58c-70.1-0.3-140.2-0.4-210.3-0.8c21.5-19.7,43.1-39.1,64.7-58.6
		c-1.1-3.2-2-6.6-2.6-10c-3.6,0-7.3,0-10.9-0.2c-20.3,18.7-40.4,37.5-60.8,56c0.3-41.7,0.2-83.3,0.5-125
		c20.4,18.3,40.8,36.7,61.1,55c2.6,2.9,6.9,1.2,10.2,1.5c0.6-3.5,1.5-6.9,2.8-10.3c-17.2-15.2-34.2-30.7-51.2-46.1
		C363.1,260,358.3,256,353.9,251.5 M457,272c-1.1,3.3-0.4,6.9-0.5,10.4c2.8-0.1,5.7-0.1,8.5,0c-0.1-3.1,0.2-6.3-0.2-9.4
		C464,269.5,458.7,268.8,457,272 M451.5,285.6c-14.4,3-26.8,14.2-31.3,28.2c-4.1,12.2-2.2,26.2,5,36.9c6.7,10.1,17.9,17.1,29.9,18.5
		c12.3,1.7,25.2-2.4,34.2-10.9c8.9-8.1,14.1-20.2,13.7-32.3c-0.2-14.3-8.3-28.1-20.6-35.4C473.2,285.1,462,283.4,451.5,285.6
		 M505.3,322.5c0.1,2.8,0.1,5.6,0,8.5c3.3,0,6.6,0.3,9.9-0.2c3.5-1.2,3.5-6.7,0-7.9C511.9,322.2,508.5,322.6,505.3,322.5
		 M406.1,330.8c3.2,0.6,6.5,0.2,9.7,0.3c-0.1-2.8-0.1-5.6,0.1-8.4c-3.3,0-6.7-0.4-10,0.4C402.9,324.5,403,329.5,406.1,330.8
		 M456.5,371.9c0.1,3.3-0.6,6.9,0.5,10.1c1.6,3.1,6.8,2.5,7.7-0.9c0.4-3.1,0.1-6.2,0.2-9.3C462.2,372,459.4,372,456.5,371.9z"/>
	<path class="st1" d="M755.2,293.3c0.1-7.9-0.1-15.8,0.1-23.6c7.9,0.1,15.7,0,23.6,0.1c0,7.9,0,15.8,0,23.6
		C771.1,293.4,763.2,293.5,755.2,293.3z"/>
	<path class="st1" d="M1198.6,281.7c21-2.5,43.4-0.1,61.8,11c17.9,10.4,30.9,28.2,37.1,47.8c6.1,19.5,6.7,40.5,3.2,60.6
		c-4.1,22.5-16.2,44-35.2,57.1c-17.4,12.3-39.4,16.5-60.4,14.9c-16.7-0.9-33.3-6.5-46.6-16.6c-16.9-12.6-27.9-32-32.2-52.5
		c-2.6-12.5-3.3-25.4-2.2-38.1c1.5-21.5,9.3-43,24.1-58.9C1161.2,292.9,1179.5,284,1198.6,281.7 M1205.1,317.2
		c-7.7,1.2-14.9,4.9-20.4,10.4c-8,7.8-12.4,18.5-14.6,29.3c-3,15.2-2.8,31.2,1.5,46.2c3.1,11.1,9.3,21.7,19,28.2
		c7.9,5.4,18,7,27.4,6.1c7.7-0.6,15.2-3.5,21.1-8.5c7.4-6.1,12.4-14.7,15.3-23.8c4.1-12.3,4.7-25.4,3.7-38.2
		c-1.1-10.6-3.7-21.2-9.3-30.4c-4.4-7.2-10.7-13.4-18.6-16.7C1222.2,316.5,1213.4,316.1,1205.1,317.2z"/>
	<path class="st1" d="M1415.5,281.6c21.4-2.4,44.1,0.4,62.5,12.1c18.2,11.1,30.9,29.9,36.6,50.4c5,18.1,5.4,37.4,2.4,55.9
		c-3.6,21.4-14.3,41.9-31.5,55.4c-12.9,10.3-29.1,16.3-45.5,17.6c-20.9,2-42.9-1.5-60.7-13.1c-15.6-9.9-27.1-25.5-33.2-42.8
		c-5.7-15.7-7.1-32.6-6.1-49.1c1.1-20.7,7.9-41.4,21.3-57.5C1374.7,294.2,1394.7,284,1415.5,281.6 M1421.2,317.2
		c-15.6,2.2-27.5,15.3-32.2,29.8c-4.9,14.1-5.6,29.3-3.8,44c1.9,14,7,28.4,18.1,37.7c10.2,8.9,24.9,10.6,37.7,7.6
		c9.4-2.3,17.4-8.8,22.7-16.8c10.2-15.7,11.9-35.3,10.4-53.5c-1.7-15.5-7.3-32-20.2-41.7C1444.7,317.1,1432.4,315.6,1421.2,317.2z"
		/>
	<path class="st1" d="M456.4,293.4c2.8-0.2,5.7-0.5,8.6,0.1c0,4.5,0.2,9-0.2,13.5c-0.7,3.9-7,4.3-8.1,0.5
		C456,302.8,456.6,298.1,456.4,293.4z"/>
	<path class="st1" d="M176.7,296.1c9.5,0,19,0,28.6,0c0,9.6,0.1,19.1,0,28.6c-9.5-0.1-19.1,0.1-28.6-0.1
		C176.7,315.1,176.6,305.6,176.7,296.1z"/>
	<path class="st1" d="M426.8,322.6c4.7,0.1,9.4-0.3,14.1,0.2c3.9,0.9,3.9,7.2,0,8.1c-4.7,0.5-9.5,0.1-14.2,0.2
		C426.6,328.3,426.6,325.5,426.8,322.6z"/>
	<path class="st1" d="M457.4,323.5c2.5-2.5,7.2-0.9,7.9,2.5c1.1,3.5-2.9,7.2-6.3,5.8C455.5,330.7,454.5,325.7,457.4,323.5z"/>
	<path class="st1" d="M480.9,330.9c-4-0.5-4.6-6.8-0.8-8.1c4.7-0.7,9.4-0.1,14.2-0.3c0.2,2.9,0.2,5.7,0.1,8.6
		C489.9,331,485.4,331.3,480.9,330.9z"/>
	<path class="st1" d="M154.1,334.9c5.4,0,10.8,0,16.2,0c0,5.4,0,10.8,0,16.2c-5.4,0-10.8,0-16.2,0
		C154.1,345.7,154.1,340.3,154.1,334.9z"/>
	<path class="st1" d="M456.7,346.5c1.2-3.8,7.5-3.5,8.1,0.5c0.4,4.6,0,9.2,0.2,13.9c-2.9,0.2-5.8,0.2-8.6,0
		C456.6,356.1,456,351.3,456.7,346.5z"/>
	<path class="st1" d="M521,483.2c1-0.4,2.1-0.7,3.1-0.9c-6,3.2-12.4,5.3-18.7,8c-38.6,15.8-79.1,27.3-120.5,32.5
		c-21.2,2.7-42.8,3.5-64.2,2c-17.2-1.4-34.4-4.2-50.9-9.6c2.4-0.1,4.7,0.6,7,1.4c13.5,2.8,27.2,4.4,41,5.2c20.8,1,41.6,0.4,62.2-2
		c30.8-3.3,61.2-9.9,90.9-18.8C487.9,495.8,504.8,490.3,521,483.2z"/>
</g>
</svg>
